# Blender v2.82 (sub 7) OBJ File: ''
# www.blender.org
o Circle
v -0.029107 0.029107 0.000000
v 0.000000 0.041163 0.000000
v 0.029107 0.029107 0.000000
v 0.041163 0.000000 0.000000
v 0.029107 -0.029107 -0.000000
v 0.000000 -0.041163 -0.000000
v -0.029107 -0.029107 -0.000000
v -0.041163 0.000000 0.000000
v -0.041528 -0.000000 0.125522
v -0.029364 -0.029364 0.125522
v -0.021878 -0.021878 0.162290
v -0.030940 -0.000000 0.162290
v 0.029364 0.029364 0.125522
v 0.041528 -0.000000 0.125522
v 0.029364 -0.029364 0.125522
v 0.000000 -0.041528 0.125522
v -0.029364 0.029364 0.125522
v 0.000000 0.041528 0.125522
v 0.030940 -0.000000 0.162290
v 0.021878 0.021878 0.162290
v 0.029518 0.029518 0.202719
v 0.041745 -0.000000 0.202719
v -0.021878 0.021878 0.162290
v 0.000000 0.030940 0.162290
v 0.021878 -0.021878 0.162290
v 0.000000 -0.030940 0.162290
v -0.029518 -0.029518 0.202719
v 0.000000 -0.041745 0.202719
v 0.000000 -0.019604 0.256220
v -0.013862 -0.013862 0.256220
v 0.029518 -0.029518 0.202719
v -0.041745 -0.000000 0.202719
v -0.029518 0.029518 0.202719
v 0.000000 0.041745 0.202719
v -0.013862 0.013862 0.256220
v -0.019604 -0.000000 0.256220
v 0.013862 -0.013862 0.256220
v 0.019604 -0.000000 0.256220
v 0.013862 0.013862 0.256220
v 0.000000 0.019604 0.256220
vt 0.000000 0.000000
vt 0.000000 0.000000
vt 0.000000 0.000000
vt 0.000000 0.000000
vt 0.000000 0.000000
vt 0.000000 0.000000
vt 0.000000 0.000000
vt 0.000000 0.000000
vt 0.000000 0.000000
vt 0.000000 0.000000
vt 0.000000 0.000000
vt 0.000000 0.000000
vt 0.000000 0.000000
vt 0.000000 0.000000
vt 0.000000 0.000000
vt 0.000000 0.000000
vt 0.000000 0.000000
vt 0.000000 0.000000
vt 0.000000 0.000000
vt 0.000000 0.000000
vt 0.000000 0.000000
vt 0.000000 0.000000
vt 0.000000 0.000000
vt 0.000000 0.000000
vt 0.000000 0.000000
vt 0.000000 0.000000
vt 0.000000 0.000000
vt 0.000000 0.000000
vt 0.000000 0.000000
vt 0.000000 0.000000
vt 0.000000 0.000000
vt 0.000000 0.000000
vt 0.000000 0.000000
vt 0.000000 0.000000
vt 0.000000 0.000000
vt 0.000000 0.000000
vt 0.000000 0.000000
vt 0.000000 0.000000
vt 0.000000 0.000000
vt 0.000000 0.000000
vn 0.0000 0.0000 -1.0000
vn -0.8928 -0.3698 0.2571
vn 0.9239 0.3827 -0.0027
vn 0.3827 -0.9239 -0.0027
vn -0.9239 -0.3827 -0.0027
vn -0.3827 0.9239 -0.0027
vn 0.3827 0.9239 -0.0027
vn 0.9239 -0.3827 -0.0027
vn -0.3827 -0.9239 -0.0027
vn -0.9239 0.3827 -0.0027
vn 0.8969 0.3715 -0.2397
vn -0.3698 0.8928 0.2571
vn 0.3698 0.8928 0.2571
vn 0.8928 -0.3698 0.2571
vn -0.3698 -0.8928 0.2571
vn -0.8928 0.3698 0.2571
vn 0.8928 0.3698 0.2571
vn 0.3698 -0.8928 0.2571
vn -0.3575 -0.8630 0.3571
vn 0.3715 -0.8969 -0.2397
vn -0.8969 -0.3715 -0.2397
vn -0.3715 0.8969 -0.2397
vn 0.3715 0.8969 -0.2397
vn 0.8969 -0.3715 -0.2397
vn -0.3715 -0.8969 -0.2397
vn -0.8969 0.3715 -0.2397
vn 0.0000 0.0000 1.0000
vn -0.8630 0.3575 0.3571
vn 0.8630 0.3575 0.3571
vn 0.3575 -0.8630 0.3571
vn -0.8630 -0.3575 0.3571
vn -0.3575 0.8630 0.3571
vn 0.3575 0.8630 0.3571
vn 0.8630 -0.3575 0.3571
s 1
f 4/1/1 6/2/1 8/3/1
f 10/4/2 12/5/2 9/6/2
f 4/1/3 13/7/3 14/8/3
f 6/2/4 15/9/4 16/10/4
f 8/3/5 10/4/5 9/6/5
f 2/11/6 17/12/6 18/13/6
f 2/11/7 13/7/7 3/14/7
f 4/1/8 15/9/8 5/15/8
f 6/2/9 10/4/9 7/16/9
f 8/3/10 17/12/10 1/17/10
f 19/18/11 21/19/11 22/20/11
f 17/12/12 24/21/12 18/13/12
f 13/7/13 24/21/13 20/22/13
f 15/9/14 19/18/14 25/23/14
f 10/4/15 26/24/15 11/25/15
f 17/12/16 12/5/16 23/26/16
f 13/7/17 19/18/17 14/8/17
f 15/9/18 26/24/18 16/10/18
f 27/27/19 29/28/19 30/29/19
f 26/24/20 31/30/20 28/31/20
f 12/5/21 27/27/21 32/32/21
f 24/21/22 33/33/22 34/34/22
f 24/21/23 21/19/23 20/22/23
f 19/18/24 31/30/24 25/23/24
f 26/24/25 27/27/25 11/25/25
f 12/5/26 33/33/26 23/26/26
f 39/35/27 40/36/27 29/28/27
f 33/33/28 36/37/28 35/38/28
f 21/19/29 38/39/29 22/20/29
f 31/30/30 29/28/30 28/31/30
f 27/27/31 36/37/31 32/32/31
f 33/33/32 40/36/32 34/34/32
f 21/19/33 40/36/33 39/35/33
f 31/30/34 38/39/34 37/40/34
f 8/3/1 1/17/1 2/11/1
f 2/11/1 3/14/1 4/1/1
f 4/1/1 5/15/1 6/2/1
f 6/2/1 7/16/1 8/3/1
f 8/3/1 2/11/1 4/1/1
f 10/4/2 11/25/2 12/5/2
f 4/1/3 3/14/3 13/7/3
f 6/2/4 5/15/4 15/9/4
f 8/3/5 7/16/5 10/4/5
f 2/11/6 1/17/6 17/12/6
f 2/11/7 18/13/7 13/7/7
f 4/1/8 14/8/8 15/9/8
f 6/2/9 16/10/9 10/4/9
f 8/3/10 9/6/10 17/12/10
f 19/18/11 20/22/11 21/19/11
f 17/12/12 23/26/12 24/21/12
f 13/7/13 18/13/13 24/21/13
f 15/9/14 14/8/14 19/18/14
f 10/4/15 16/10/15 26/24/15
f 17/12/16 9/6/16 12/5/16
f 13/7/17 20/22/17 19/18/17
f 15/9/18 25/23/18 26/24/18
f 27/27/19 28/31/19 29/28/19
f 26/24/20 25/23/20 31/30/20
f 12/5/21 11/25/21 27/27/21
f 24/21/22 23/26/22 33/33/22
f 24/21/23 34/34/23 21/19/23
f 19/18/24 22/20/24 31/30/24
f 26/24/25 28/31/25 27/27/25
f 12/5/26 32/32/26 33/33/26
f 40/36/27 35/38/27 36/37/27
f 36/37/27 30/29/27 40/36/27
f 30/29/27 29/28/27 40/36/27
f 29/28/27 37/40/27 38/39/27
f 38/39/27 39/35/27 29/28/27
f 33/33/28 32/32/28 36/37/28
f 21/19/29 39/35/29 38/39/29
f 31/30/30 37/40/30 29/28/30
f 27/27/31 30/29/31 36/37/31
f 33/33/32 35/38/32 40/36/32
f 21/19/33 34/34/33 40/36/33
f 31/30/34 22/20/34 38/39/34
